<svg width="1493" height="649" viewBox="0 0 1493 649" fill="none" xmlns="http://www.w3.org/2000/svg">
<path fill-rule="evenodd" clip-rule="evenodd" d="M625.044 105.99C744.807 218.54 746.485 407.836 746.5 409.917C746.515 407.836 748.193 218.54 867.955 105.99C988.38 -7.18382 1182.6 0.0945304 1182.6 0.0945304C1182.6 0.0945304 1181.57 190.863 1061.14 304.039C955.574 403.251 793.294 409.898 754.863 410.026C793.294 410.155 955.574 416.802 1061.14 516.013C1181.57 629.187 1182.6 819.958 1182.6 819.958C1182.6 819.958 988.38 827.236 867.955 714.063C748.193 601.512 746.515 412.217 746.5 410.135C746.485 412.217 744.807 601.512 625.044 714.063C504.622 827.236 310.403 819.958 310.403 819.958C310.403 819.958 311.431 629.187 431.856 516.013C537.423 416.802 699.703 410.158 738.134 410.026C699.703 409.898 537.426 403.251 431.856 304.039C311.431 190.863 310.4 0.0945304 310.4 0.0945304C310.4 0.0945304 504.62 -7.18102 625.044 105.99ZM740.498 410.029C744.38 410.043 746.479 410.121 746.5 410.121C746.515 410.121 748.614 410.043 752.502 410.029C748.614 410.015 746.515 409.937 746.5 409.937C746.479 409.937 744.38 410.015 740.498 410.029Z" fill="white" fill-opacity="0.02"/>
<path fill-rule="evenodd" clip-rule="evenodd" d="M1497.24 107.374C1617.01 219.925 1618.68 409.22 1618.7 411.302C1618.71 409.22 1620.39 219.925 1740.16 107.374C1860.58 -5.79904 2054.8 1.4793 2054.8 1.4793C2054.8 1.4793 2053.77 192.247 1933.34 305.424C1827.77 404.635 1665.49 411.282 1627.06 411.411C1665.49 411.539 1827.77 418.186 1933.34 517.398C2053.77 630.572 2054.8 821.342 2054.8 821.342C2054.8 821.342 1860.58 828.621 1740.16 715.447C1620.39 602.897 1618.71 413.601 1618.7 411.52C1618.68 413.601 1617.01 602.897 1497.24 715.447C1376.82 828.621 1182.6 821.342 1182.6 821.342C1182.6 821.342 1183.63 630.572 1304.06 517.398C1409.62 418.186 1571.9 411.542 1610.33 411.411C1571.9 411.282 1409.63 404.635 1304.06 305.424C1183.63 192.247 1182.6 1.4793 1182.6 1.4793C1182.6 1.4793 1376.82 -5.79625 1497.24 107.374ZM1612.7 411.414C1616.58 411.428 1618.68 411.506 1618.7 411.506C1618.71 411.506 1620.81 411.428 1624.7 411.414C1620.81 411.4 1618.71 411.321 1618.7 411.321C1618.68 411.321 1616.58 411.4 1612.7 411.414Z" fill="white" fill-opacity="0.02"/>
<path fill-rule="evenodd" clip-rule="evenodd" d="M-247.253 107.374C-127.49 219.925 -125.812 409.22 -125.797 411.302C-125.782 409.22 -124.105 219.925 -4.3418 107.374C116.083 -5.79904 310.303 1.4793 310.303 1.4793C310.303 1.4793 309.272 192.247 188.847 305.424C83.2767 404.635 -79.0034 411.282 -117.435 411.411C-79.0034 411.539 83.2767 418.186 188.847 517.398C309.272 630.572 310.303 821.342 310.303 821.342C310.303 821.342 116.083 828.621 -4.3418 715.447C-124.105 602.897 -125.782 413.601 -125.797 411.52C-125.812 413.601 -127.49 602.897 -247.253 715.447C-367.675 828.621 -561.894 821.342 -561.894 821.342C-561.894 821.342 -560.867 630.572 -440.442 517.398C-334.874 418.186 -172.594 411.542 -134.163 411.411C-172.594 411.282 -334.871 404.635 -440.442 305.424C-560.867 192.247 -561.897 1.4793 -561.897 1.4793C-561.897 1.4793 -367.678 -5.79625 -247.253 107.374ZM-131.799 411.414C-127.918 411.428 -125.818 411.506 -125.797 411.506C-125.782 411.506 -123.683 411.428 -119.795 411.414C-123.683 411.4 -125.782 411.321 -125.797 411.321C-125.818 411.321 -127.918 411.4 -131.799 411.414Z" fill="white" fill-opacity="0.02"/>
</svg>
