<svg width="1259" height="1269" viewBox="0 0 1259 1269" fill="none" xmlns="http://www.w3.org/2000/svg">
<path d="M1243.37 208.369H1235.81V216.013H1197.01V208.369H1189.36V184.681H1197.01V176.953H1205.41V185.521H1197.85V207.529H1212.21V192.241H1220.53V207.529H1234.97V185.521H1227.33V176.953H1235.81V184.681H1243.37V208.369ZM1225.57 169.902H1217.08V146.214H1225.57V169.902ZM1243.37 131.178H1235.81V138.822H1197.01V131.178H1189.36V107.49H1197.01V99.7618H1212.97V108.33H1197.85V130.338H1234.97V108.33H1219.69V99.7618H1235.81V107.49H1243.37V131.178ZM1243.37 89.6031H1234.97V81.9591H1197.85V89.6031H1189.36V65.8311H1197.85V73.5591H1234.97V65.8311H1243.37V89.6031ZM1243.37 55.6421H1197.01V47.9981H1189.36V24.3101H1197.01V16.5821H1220.53V24.3101H1228.17V28.0061H1234.97V20.4461H1243.37V28.8461H1235.81V36.5741H1228.17V47.1581H1243.37V55.6421ZM1219.69 47.1581V25.1501H1197.85V47.1581H1219.69ZM1243.37 -1.22062H1235.81V6.42338H1197.01V-1.22062H1189.36V-24.9086H1197.01V-32.6366H1212.97V-24.0686H1197.85V-2.06062H1234.97V-24.0686H1219.69V-32.6366H1235.81V-24.9086H1243.37V-1.22062ZM1243.37 -50.4394H1235.81V-42.7954H1189.36V-51.2794H1234.97V-73.2874H1227.33V-81.8554H1235.81V-74.1274H1243.37V-50.4394ZM1243.37 -99.6581H1235.81V-92.0141H1197.01V-99.6581H1189.36V-123.346H1197.01V-131.074H1205.41V-122.506H1197.85V-100.498H1212.21V-115.786H1220.53V-100.498H1234.97V-122.506H1227.33V-131.074H1235.81V-123.346H1243.37V-99.6581Z" fill="white" fill-opacity="0.08"/>
<path d="M71.008 1136.32H63.448V1143.97H24.64V1136.32H16.996L16.996 1112.63H24.64V1104.91H33.04V1113.47H25.48L25.48 1135.48H39.844V1120.19H48.16V1135.48H62.608V1113.47H54.964V1104.91H63.448V1112.63H71.008V1136.32ZM53.2 1097.86H44.716L44.716 1074.17H53.2L53.2 1097.86ZM71.008 1059.13H63.448V1066.77H24.64V1059.13H16.996L16.996 1035.44H24.64V1027.71H40.6V1036.28H25.48L25.48 1058.29H62.608V1036.28H47.32V1027.71H63.448V1035.44H71.008V1059.13ZM71.008 1017.56H62.608V1009.91H25.48V1017.56H16.996L16.996 993.784H25.48L25.48 1001.51H62.608V993.784H71.008V1017.56ZM71.008 983.595H24.64V975.951H16.996V952.263H24.64V944.535H48.16V952.263H55.804V955.959H62.608V948.399H71.008V956.799H63.448L63.448 964.527H55.804V975.111H71.008V983.595ZM47.32 975.111L47.32 953.103H25.48V975.111H47.32ZM71.008 926.732H63.448V934.376H24.64L24.64 926.732H16.996V903.044H24.64V895.316H40.6V903.884H25.48V925.892H62.608V903.884H47.32V895.316H63.448V903.044H71.008V926.732ZM71.008 877.513H63.448V885.157H16.996V876.673H62.608V854.665H54.964V846.097H63.448V853.825H71.008V877.513ZM71.008 828.295H63.448V835.939H24.64V828.295H16.996L16.996 804.607H24.64V796.879H33.04V805.447H25.48L25.48 827.455H39.844V812.167H48.16V827.455H62.608V805.447H54.964V796.879H63.448V804.607H71.008V828.295Z" fill="white" fill-opacity="0.08"/>
<path d="M635.219 64.5C931.601 64.5 1171.87 304.766 1171.87 601.147C1171.87 897.529 931.601 1137.8 635.219 1137.8C338.838 1137.8 98.573 897.529 98.573 601.147C98.5732 304.766 338.838 64.5001 635.219 64.5Z" stroke="#2C2C2C"/>
<line x1="1171.87" y1="1257.43" x2="1171.87" y2="-108.508" stroke="#2C2C2C"/>
<line x1="90.9004" y1="1268.82" x2="104.484" y2="-133.624" stroke="#2C2C2C"/>
</svg>
