<svg width="85" height="52" viewBox="0 0 85 52" fill="none" xmlns="http://www.w3.org/2000/svg">
<path d="M25.8444 5.65353C23.1804 5.75886 20.6515 6.31992 18.2033 7.3453C17.7368 7.54092 16.7056 8.03749 16.2696 8.27825C15.1491 8.89305 14.0721 9.60673 13.1173 10.3677C12.0447 11.2233 10.898 12.3454 10.0151 13.4052C7.31836 16.6425 5.63537 20.6882 5.24296 24.8821C5.15358 25.8409 5.12742 27.2983 5.1841 28.1174C5.33016 30.1939 5.71821 32.0727 6.37876 33.9042C7.92878 38.2014 10.8239 41.8923 14.6281 44.416C17.3684 46.2368 20.4837 47.404 23.7843 47.849C24.7435 47.978 25.5872 48.0317 26.6728 48.0317C28.2512 48.0317 29.5941 47.8941 31.1136 47.5781C31.4471 47.5093 31.4994 47.4921 31.5103 47.4556C31.5169 47.4298 31.5234 46.7699 31.5234 45.9895V44.5686L31.3817 44.4869C31.07 44.3064 30.8258 44.0205 30.7233 43.7152C30.6122 43.3756 30.6601 42.9542 30.8454 42.6361C31.0002 42.3717 31.2923 42.1395 31.5997 42.0342C31.8352 41.9525 32.1949 41.9461 32.4281 42.0191C32.8729 42.1589 33.2304 42.5265 33.3677 42.9822C33.4135 43.137 33.4201 43.4272 33.3786 43.5948C33.3634 43.6593 33.3111 43.7947 33.2609 43.8958C33.1454 44.1301 32.8968 44.3859 32.6745 44.4977L32.5262 44.5729V45.9809L32.5284 47.389L32.5764 47.3245C32.6025 47.2901 33.6228 45.9251 34.8436 44.2935L37.0629 41.327L36.0274 41.3205L34.9897 41.3162V38.4249V35.5358L30.6688 35.5272C27.5754 35.5208 26.2891 35.5122 26.1496 35.495C24.5233 35.2886 23.4049 34.9554 22.3541 34.3599C21.6434 33.9601 21.0679 33.5259 20.5142 32.9777C19.483 31.9566 18.7462 30.6539 18.3777 29.2094C18.3298 29.0202 18.2905 28.8525 18.2905 28.8353C18.2905 28.8095 19.8275 28.8052 29.2758 28.8052H40.2589L40.2741 28.7021C40.4856 27.1221 40.3918 25.3615 40.0147 23.8052C38.8353 18.9534 34.9744 15.1141 30.0737 13.9189C28.855 13.6223 27.7716 13.5019 26.5093 13.5277C25.8509 13.5406 25.5763 13.5599 25.016 13.6309C22.2844 13.9791 19.7599 15.1184 17.691 16.9413C16.141 18.3064 14.8766 20.0884 14.1179 21.9801C13.6274 23.2033 13.3593 24.3168 13.2088 25.7312C13.1718 26.0881 13.1587 27.4123 13.187 27.8293C13.3745 30.482 14.2967 32.9326 15.9012 35.0285C16.4288 35.7185 17.2725 36.6063 17.9068 37.1373C20.0411 38.9258 22.5874 40.0092 25.3321 40.2951C25.9229 40.3553 26.3872 40.3704 27.8021 40.3704H29.2126L29.2082 40.8368L29.2017 41.3055L28.1051 41.3162L27.0085 41.327L28.7133 43.6249C29.6486 44.8868 30.4072 45.9294 30.3963 45.9379C30.3745 45.9594 29.5461 46.097 29.1036 46.1529C25.6569 46.5785 22.1536 46.0927 18.89 44.7298C18.0747 44.3902 16.976 43.8291 16.226 43.367C14.0525 42.0299 12.1777 40.3037 10.6713 38.253C8.16858 34.8479 6.83875 30.6991 6.91724 26.5374C6.93468 25.6109 6.98482 24.9918 7.1069 24.1362C7.883 18.7771 10.8064 14.0544 15.2864 10.9352C19.071 8.29975 23.7428 7.0508 28.3296 7.45063C32.16 7.78168 35.8355 9.2069 38.8026 11.5092C38.9857 11.6532 39.1601 11.7865 39.1863 11.8058L39.2364 11.8445L39.7531 11.1889C40.0387 10.8299 40.2916 10.5289 40.3155 10.5203C40.37 10.5031 40.4027 10.5311 39.8621 10.1162C36.4503 7.48503 32.2472 5.92868 27.8827 5.67503C27.3443 5.64493 26.3371 5.63418 25.8444 5.65353ZM27.3486 18.4869C30.7015 18.7707 33.5901 20.7828 34.7935 23.6719C34.8545 23.8138 34.9025 23.9406 34.9025 23.9492C34.9025 23.9599 31.3403 23.9685 26.7251 23.9685C20.1915 23.9685 18.55 23.9621 18.5587 23.9406C18.877 23.1667 19.1146 22.7153 19.4765 22.1843C19.9408 21.505 20.6363 20.7871 21.3382 20.2647C22.6615 19.2759 24.3794 18.6374 26.106 18.4891C26.4199 18.4633 27.0434 18.4633 27.3486 18.4869Z" fill="white"/>
<path d="M55.1551 33.6227C54.1741 33.7323 53.2934 34.1622 52.7418 34.8071C52.2666 35.3596 51.9679 36.041 51.8371 36.8751C51.7739 37.2835 51.7673 38.1993 51.8262 38.5969C52.0355 40.0028 52.683 40.9788 53.7599 41.5183C54.3572 41.8171 54.9524 41.9418 55.7547 41.9418C56.3585 41.9418 56.8338 41.8644 57.3068 41.6903C58.5582 41.2303 59.3452 40.2199 59.4629 38.9237L59.4782 38.7582H58.4753H57.4747L57.4267 38.9688C57.2981 39.532 56.921 39.9856 56.4174 40.1834C56.1013 40.3081 55.6456 40.336 55.3186 40.25C54.8674 40.1339 54.4946 39.8287 54.2526 39.3773C53.7446 38.4357 53.7948 36.7998 54.3551 35.9851C54.4771 35.8089 54.5752 35.7035 54.7257 35.5853C55.2489 35.179 55.977 35.1274 56.5983 35.452C56.8621 35.5896 57.1542 35.9099 57.2938 36.2108C57.3526 36.342 57.4355 36.6236 57.4485 36.7483L57.4551 36.8127L58.4623 36.8192L59.4695 36.8235L59.4585 36.7117C59.4324 36.4344 59.3997 36.2388 59.3517 36.0539C59.0051 34.7512 57.8628 33.8247 56.3607 33.6313C56.0926 33.5969 55.4342 33.5926 55.1551 33.6227Z" fill="white"/>
<path d="M40.963 37.7693V41.8107H42.0094H43.0559V37.7693V33.728H42.0094H40.963V37.7693Z" fill="white"/>
<path d="M44.2985 37.7672V41.8107H45.3449H46.3913V40.3919V38.9731H46.9145C47.3898 38.9731 47.4399 38.9774 47.4595 39.0097C47.4726 39.0312 47.7909 39.6675 48.168 40.4241L48.8526 41.7999L50.0189 41.8064C50.662 41.8085 51.1874 41.8042 51.1874 41.7978C51.1874 41.7892 50.8277 41.097 50.3873 40.2565C49.9448 39.416 49.5829 38.7173 49.5785 38.7044C49.5764 38.6915 49.6091 38.6636 49.6548 38.6421C49.9404 38.5088 50.3176 38.1842 50.5051 37.9091C50.7056 37.6167 50.8473 37.2663 50.9171 36.8987C50.9672 36.6451 50.9672 36.1119 50.9171 35.8432C50.7361 34.8222 50.0821 34.145 49.0183 33.872C48.5081 33.7409 48.5256 33.743 46.3215 33.7344L44.2985 33.7258V37.7672ZM47.9718 35.3273C48.4209 35.4499 48.7087 35.7444 48.8003 36.1678C48.9441 36.8385 48.5888 37.4103 47.9479 37.5436C47.8345 37.5673 47.6274 37.5759 47.0955 37.5759H46.3913V36.4236V35.2714L47.1173 35.28C47.7081 35.2886 47.865 35.2972 47.9718 35.3273Z" fill="white"/>
<path d="M60.4308 37.7693V41.8107H63.1667H65.9027V40.9831V40.1554H64.2132H62.5236V36.9417V33.728H61.4772H60.4308V37.7693Z" fill="white"/>
<path d="M66.8619 37.7693V41.8107H69.6742H72.4865V40.9831V40.1554H70.7206H68.9548V39.3278V38.5002H70.6116H72.2685V37.7478V36.9955H70.6116H68.9548V36.1893V35.3832H70.7206H72.4865V34.5556V33.728H69.6742H66.8619V37.7693Z" fill="white"/>
<path d="M31.8221 42.6576C31.5365 42.7587 31.3621 43.008 31.3621 43.3154C31.3642 43.5863 31.5081 43.812 31.761 43.9324C31.8635 43.984 31.9093 43.9926 32.0575 43.9926C32.3453 43.9904 32.5611 43.8571 32.6832 43.6056C32.766 43.4294 32.7704 43.1886 32.6897 43.0209C32.6199 42.8683 32.4673 42.7264 32.3169 42.6727C32.1774 42.6211 31.9485 42.6146 31.8221 42.6576Z" fill="white"/>
</svg>
